<svg width="338" height="583" viewBox="0 0 338 583" fill="none" xmlns="http://www.w3.org/2000/svg">
<path d="M-263.54 143.556C-254.677 132.814 -247.493 122.712 -238.989 113.889C-180.173 54.3087 -110.158 36.7096 -31.5942 51.8762C10.2667 59.8456 47.1039 79.7113 77.12 112.751C105.575 144.127 121.685 181.505 123.532 225.142C126.493 301.283 74.397 364.964 3.53192 372.069C-28.2435 375.241 -59.1898 368.945 -88.9421 357.915C-160.324 330.982 -216.019 283.46 -255.788 214.07C-258.431 209.845 -260.834 206.004 -264.437 200.243C-266.231 204.848 -268.027 207.789 -268.982 211.244C-281.044 257.556 -276.797 303.37 -259.001 346.765C-209.462 467.476 -123.282 538.825 -0.703357 557.1C66.343 567.139 129.885 552.477 185.48 508.505C225.738 476.549 259.753 437.933 287.406 393.298C290.04 389.205 292.074 384.984 294.468 380.507C295.425 378.717 295.783 376.798 296.738 373.343C292.901 373.852 289.783 373.849 287.386 374.999C270.845 381.767 255.143 389.047 238.601 395.815C234.167 397.859 229.132 399.774 224.096 400.026C221.218 400.407 215.819 397.587 215.336 395.156C214.373 391.956 216.527 387.095 217.842 383.385C218.44 381.85 220.718 381.34 222.396 380.702C252.242 367.803 282.328 355.288 312.415 342.774C327.637 336.388 333.758 340.36 336.175 357.51C336.659 361.605 337.262 365.06 337.387 369.411C337.788 407.416 338.189 445.422 337.751 482.915C337.763 494.559 335.858 506.458 333.712 517.973C332.758 523.091 330.485 528.591 327.252 532.555C325.575 534.857 320.301 536.388 317.421 535.106C314.782 534.208 313.458 529.6 311.536 526.528C310.815 525.375 311.413 523.84 312.011 522.305C320.367 487.506 317.69 451.674 317.652 416.741C317.522 407.399 317.272 398.697 316.898 385.645C313.665 389.609 312.467 391.016 311.869 392.551C287.217 439.492 253.202 478.108 214.744 512.113C132.799 585.366 38.5545 597.442 -61.2537 565.75C-142.468 539.704 -205.725 485.906 -251.378 409.601C-272.763 373.753 -287.915 334.584 -292.999 291.584C-297.356 254.727 -294.038 218.516 -280.764 184.105C-277.057 174.255 -277.426 166.193 -280.195 155.954C-285.853 136.115 -291.152 116.02 -293.332 95.9281C-303.981 7.49665 -265.208 -66.6888 -188.138 -102.069C-115.743 -135.789 -44.3847 -130.482 23.0611 -84.1018C35.7821 -75.3895 45.9886 -63.2243 57.2736 -51.826C61.2351 -47.9837 63.8798 -42.0952 66.0439 -36.9748C67.7276 -32.6226 66.7738 -27.5049 62.0987 -25.8454C59.1018 -24.8242 55.0229 -26.3633 52.0241 -27.0057C50.8247 -27.2626 50.2231 -29.0546 49.5023 -30.2069C23.7982 -67.9779 -12.3182 -86.6913 -52.9814 -96.0672C-106.839 -108.27 -158.276 -99.9959 -205.489 -67.5336C-246.231 -39.6724 -268.373 0.48904 -274.673 51.029C-278.118 81.2254 -274.241 117.314 -263.54 143.556ZM-232.042 215.498C-200.93 264.406 -160.116 301.422 -110.083 325.778C-79.2469 341.032 -47.0975 350.912 -12.9195 351.581C68.6271 352.419 115.67 274.018 99.6414 201.065C91.2051 162.669 71.7441 131.557 41.3794 108.754C-16.9493 65.3248 -80.5146 58.3606 -147.526 79.9292C-189.963 93.4571 -223.751 120.812 -248.532 160.076C-253.799 168.261 -254.152 175.171 -249.706 183.108C-243.338 194.118 -237.81 204.616 -232.042 215.498Z" fill="black"/>
</svg>
