<svg width="160" height="68" viewBox="0 0 160 68" fill="none" xmlns="http://www.w3.org/2000/svg">
<rect y="68" width="68" height="160" transform="rotate(-90 0 68)" fill="black"/>
<path d="M50.5 46.4C48.34 46.4 46.6867 45.7867 45.54 44.56C44.3933 43.3333 43.82 41.6 43.82 39.36V24.64C43.82 22.4 44.3933 20.6667 45.54 19.44C46.6867 18.2133 48.34 17.6 50.5 17.6C52.66 17.6 54.3133 18.2133 55.46 19.44C56.6067 20.6667 57.18 22.4 57.18 24.64V39.36C57.18 41.6 56.6067 43.3333 55.46 44.56C54.3133 45.7867 52.66 46.4 50.5 46.4ZM50.5 42.4C52.02 42.4 52.78 41.48 52.78 39.64V24.36C52.78 22.52 52.02 21.6 50.5 21.6C48.98 21.6 48.22 22.52 48.22 24.36V39.64C48.22 41.48 48.98 42.4 50.5 42.4ZM60.1556 18H66.6356C68.8223 18 70.4623 18.5867 71.5556 19.76C72.649 20.9333 73.1956 22.6533 73.1956 24.92V27.68C73.1956 29.9467 72.649 31.6667 71.5556 32.84C70.4623 34.0133 68.8223 34.6 66.6356 34.6H64.5556V46H60.1556V18ZM66.6356 30.6C67.3556 30.6 67.889 30.4 68.2356 30C68.609 29.6 68.7956 28.92 68.7956 27.96V24.64C68.7956 23.68 68.609 23 68.2356 22.6C67.889 22.2 67.3556 22 66.6356 22H64.5556V30.6H66.6356ZM71.8744 41.76H76.1144V46H71.8744V41.76ZM89.2197 18H95.1797L99.7397 46H95.3397L94.5397 40.44V40.52H89.5397L88.7397 46H84.6597L89.2197 18ZM94.0197 36.72L92.0597 22.88H91.9797L90.0597 36.72H94.0197ZM108.036 46.4C105.903 46.4 104.276 45.8 103.156 44.6C102.036 43.3733 101.476 41.6267 101.476 39.36V24.64C101.476 22.3733 102.036 20.64 103.156 19.44C104.276 18.2133 105.903 17.6 108.036 17.6C110.17 17.6 111.796 18.2133 112.916 19.44C114.036 20.64 114.596 22.3733 114.596 24.64V27.04H110.436V24.36C110.436 22.52 109.676 21.6 108.156 21.6C106.636 21.6 105.876 22.52 105.876 24.36V39.68C105.876 41.4933 106.636 42.4 108.156 42.4C109.676 42.4 110.436 41.4933 110.436 39.68V34.2H108.236V30.2H114.596V39.36C114.596 41.6267 114.036 43.3733 112.916 44.6C111.796 45.8 110.17 46.4 108.036 46.4Z" fill="white"/>
<path d="M27 57.5H133" stroke="white" stroke-width="4" stroke-linecap="square"/>
</svg>
