<svg width="253" height="432" viewBox="0 0 253 432" fill="none" xmlns="http://www.w3.org/2000/svg">
<path fill-rule="evenodd" clip-rule="evenodd" d="M100.736 17.312C102.529 17.721 104.279 17.345 105.963 16.5679C108.442 15.4166 109.944 13.0993 110.416 10.4289C110.988 7.19646 109.898 3.58116 107.106 1.61321C104.721 -0.0790963 101.739 -0.1934 98.9556 0.362828C94.4274 1.23771 89.97 2.72848 85.5392 4.21038C84.0698 4.70173 82.6031 5.19212 81.1381 5.65889C76.2672 6.95964 71.4017 7.97073 66.5088 8.87918C66.671 8.86321 66.846 8.83772 67.021 8.81219C67.1963 8.78702 67.3716 8.76157 67.5335 8.74555C62.99 9.48144 58.375 10.1061 53.8502 10.9915C49.4217 11.8476 44.9849 12.7509 40.5564 13.607C39.1994 13.8524 37.8397 14.0931 36.4781 14.3343C33.1233 14.9283 29.7581 15.5239 26.4029 16.1952C24.0843 16.6994 21.6943 17.0918 19.3591 17.6898C16.219 18.4653 13.15 19.3522 10.0262 20.0342C6.28323 19.3303 2.3973 21.7511 1.20131 25.6827C0.62737 27.5965 0.727367 29.5735 1.35245 31.3233C0.0976041 34.1868 0.540563 37.4596 1.77489 40.4487C3.09886 43.7051 4.6146 46.8932 6.1265 50.0732C6.89596 51.6912 7.66412 53.3071 8.40546 54.9287C10.1461 58.7231 11.7903 62.5467 13.3824 66.4081C14.3194 68.9335 15.1993 71.4816 16.0789 74.0287L16.0827 74.0401C17.7765 78.9441 19.4691 83.8443 21.5659 88.574C22.8686 91.5378 24.2072 94.4904 25.5465 97.4447C26.9222 100.479 28.2987 103.516 29.6381 106.567C30.015 107.426 30.3889 108.286 30.7588 109.148L30.878 109.456L30.8842 109.472C31.7188 111.631 32.5727 113.84 33.172 116.085C33.128 116.076 33.1363 116.03 33.1363 116.03C33.6181 117.679 34.081 119.179 35.2086 120.521C36.9316 122.614 39.485 123.613 42.0698 123.405C46.3632 123.055 49.6165 118.809 49.2803 114.278C49.1689 112.849 48.7611 111.554 48.048 110.44C46.5775 105.633 44.618 101.019 42.5624 96.4334C42.2131 95.651 41.8623 94.869 41.511 94.0871L40.4459 91.7204C38.2769 86.9042 36.1059 82.0825 34.0778 77.1963C33.7475 76.2988 33.4231 75.3989 33.1029 74.4977C32.5364 72.9048 31.9821 71.3079 31.428 69.7112L31.4258 69.7046C29.6439 64.57 27.8638 59.4408 25.6855 54.4729C25.5341 54.0694 25.3572 53.6848 25.1752 53.2893L25.0533 53.0226L24.9398 52.7706C26.3344 53.6334 27.8416 54.3728 29.4176 54.9807C29.7769 55.1018 30.1372 55.2175 30.4975 55.3331C31.2137 55.5629 31.9297 55.7931 32.6385 56.0647C36.6387 57.8877 40.4933 60.0211 44.2265 62.3237C43.8998 62.1126 43.6087 61.9573 43.326 61.7548C48.5774 64.9936 53.8452 68.1386 59.303 70.9822C60.5653 71.633 61.8477 72.2553 63.133 72.8788C64.9893 73.7796 66.8511 74.6827 68.6647 75.6779C72.3159 77.6734 76.0194 79.6307 79.7312 81.5411C83.1882 83.281 86.6121 85.0841 90.0403 86.8896C92.1197 87.9848 94.2007 89.0806 96.2917 90.1636C97.7952 90.9426 99.3039 91.7149 100.821 92.4755C102.26 93.1893 103.695 93.9114 105.126 94.6386C107.74 95.9663 110.342 97.3119 112.947 98.6576C116.254 100.367 119.563 102.078 122.896 103.754C125.335 104.991 127.789 106.192 130.244 107.393C135.439 109.934 140.635 112.476 145.686 115.369C149.992 118.109 154.207 120.962 158.428 123.819C160.983 125.548 163.539 127.278 166.119 128.985C168.363 130.475 170.618 131.905 172.884 133.342C174.113 134.121 175.345 134.903 176.58 135.697L181.003 138.478C182.169 139.203 183.302 139.9 184.485 140.376C183.021 142.778 181.75 145.315 180.689 147.972C179.714 150.396 178.783 152.828 177.932 155.325C176.58 159.371 178.636 163.957 182.24 165.7C182.58 169.698 183.944 173.562 186.067 176.996C186.957 178.442 187.928 179.834 188.97 181.169C188.404 181.9 187.949 182.73 187.626 183.617C187.34 184.039 187.054 184.464 186.768 184.89L185.827 186.292C184.568 188.168 183.3 190.058 182.02 191.901C180.831 193.455 179.596 194.939 178.368 196.416L178.335 196.455C177.68 197.243 177.027 198.028 176.383 198.821C174.81 200.686 173.423 202.7 172.027 204.726L171.463 205.545C171.35 205.668 171.29 205.753 171.169 205.923C171.056 206.046 170.995 206.131 170.926 206.262C170.522 206.832 170.112 207.441 169.708 208.006C169.844 207.858 169.967 207.69 170.095 207.516L170.101 207.507C170.183 207.395 170.267 207.28 170.357 207.167C169.589 208.261 168.81 209.363 168.023 210.471C167.496 211.213 166.966 211.957 166.435 212.702L165.518 213.988C165.624 213.819 165.73 213.652 165.844 213.485L165.76 213.599C164.269 215.627 162.807 217.615 161.172 219.486C160.483 220.264 159.788 221.041 159.091 221.819L158.966 221.96C157.749 223.319 156.528 224.685 155.32 226.072C151.718 230.169 148.599 234.681 145.462 239.22L145.459 239.225L144.457 240.673C144.197 241.018 143.94 241.367 143.683 241.717L143.679 241.721C142.995 242.651 142.306 243.586 141.558 244.456C140.483 245.647 139.4 246.885 138.272 248.114C136.717 249.645 135.137 251.145 133.546 252.635C132.751 253.379 131.954 254.121 131.155 254.862L130.363 255.597L130.359 255.602C128.606 257.227 126.852 258.854 125.115 260.507C122.772 262.706 120.57 265.087 118.366 267.472L118.354 267.483C115.777 270.27 113.197 273.062 110.384 275.567C108.138 273.512 105.742 271.646 103.185 270.022C101.145 268.69 98.8334 267.353 96.5379 266.697C94.2339 266.088 92.1524 265.767 89.7683 265.869C84.9117 266.057 80.4622 269.093 77.4865 273.055C74.2769 277.309 72.5143 282.388 71.1828 287.602C69.2503 294.928 68.7951 302.647 68.4529 310.243C68.4055 310.767 68.4463 311.309 68.5311 311.86C67.6864 313.291 67.2123 314.942 67.2216 316.69C67.2303 321.786 70.591 326.197 73.9143 329.533C77.6103 333.332 81.9198 336.236 86.6175 338.49C96.32 343.061 108.797 344.55 118.52 339.228C121.618 337.55 124.316 335.039 126.258 331.984L126.289 332.005C131.542 335.604 136.778 339.191 142.386 342.182C144.785 343.455 147.142 344.853 149.493 346.247C150.606 346.907 151.717 347.567 152.831 348.211C156.625 350.429 160.504 352.422 164.427 354.424C171.647 358.106 178.739 362.006 185.805 366.047C193.453 370.398 201.134 374.562 209.066 378.339C212.844 380.117 216.683 381.81 220.521 383.503L220.528 383.506C222.555 384.398 224.581 385.291 226.599 386.23C226.919 386.37 227.236 386.516 227.551 386.666L227.9 386.833C228.109 386.934 228.317 387.036 228.525 387.138L228.57 387.16C228.826 387.286 229.082 387.411 229.339 387.534C229.14 388.586 228.918 389.632 228.679 390.675C228.426 391.594 228.172 392.513 227.91 393.479C227.276 395.778 227.494 398.15 228.47 400.093C228.338 403.414 229.205 406.741 230.578 409.782C232.76 414.684 237.247 418.642 241.485 421.435C245.812 424.245 250.424 426.725 255.237 428.323C260.693 430.147 266.558 431.715 272.322 431.03C276.964 430.508 281.563 429.201 285.559 426.414C289.512 423.619 293.034 419.912 295.197 415.399C296.587 412.428 297.582 409.377 298.049 406.221C298.43 404.066 298.635 401.876 298.621 399.641C298.571 377.024 279.64 356.967 258.467 356.543C253.344 356.435 247.831 356.733 243.192 359.294C239.26 361.462 235.84 364.85 233.85 369.156L233.717 369.45C233.641 369.621 233.566 369.792 233.491 369.964C233.362 370.262 233.235 370.561 233.111 370.863L232.884 370.756C230.287 369.563 227.674 368.4 225.06 367.237C219.922 364.95 214.779 362.661 209.737 360.136C202.717 356.621 195.888 352.69 189.066 348.764L189.056 348.758L187.352 347.777C183.134 345.373 178.834 343.168 174.542 340.966L174.508 340.949C171.451 339.381 168.397 337.815 165.378 336.18C163.7 335.246 162.035 334.285 160.374 333.313C159.432 332.761 158.491 332.206 157.548 331.65C156.503 331.034 155.454 330.415 154.403 329.801C153.658 329.374 152.912 328.956 152.165 328.543L151.542 328.2L150.738 327.76L149.491 327.081C147.734 326.125 145.982 325.172 144.251 324.171C140.2 321.61 136.286 318.785 132.347 316.102C131.631 315.611 130.862 315.256 130.072 315.03C130.044 314.602 130.01 314.174 129.969 313.745C129.957 313.616 129.943 313.486 129.93 313.356L129.91 313.169C129.887 312.96 129.863 312.75 129.837 312.541C129.092 306.715 127.34 300.929 124.856 295.676C123.661 293.118 122.357 290.606 120.894 288.206C123.422 285.952 125.747 283.442 128.057 280.948C128.654 280.303 129.25 279.659 129.849 279.021C133.283 275.297 136.896 271.85 140.588 268.469C142.908 266.413 145.149 264.292 147.397 262.125C149.161 260.405 150.787 258.592 152.442 256.746L152.452 256.735L153.024 256.097L153.521 255.545C155.163 253.687 156.631 251.557 158.07 249.469L158.537 248.791C159.51 247.403 160.483 246.014 161.441 244.622C161.862 244.011 162.28 243.399 162.693 242.787C165.372 239.397 168.193 236.192 171.028 232.971C171.48 232.459 171.932 231.946 172.383 231.431L172.751 231.011L173.134 230.574C175.798 227.523 178.162 224.147 180.505 220.8L180.534 220.758L180.562 220.718C181.211 219.792 181.857 218.867 182.509 217.954L182.505 217.97L182.449 218.045L182.426 218.076L182.388 218.123C182.435 218.089 182.488 218.018 182.505 217.97C182.537 217.925 182.57 217.879 182.601 217.833C182.642 217.775 182.681 217.716 182.721 217.657C182.829 217.497 182.937 217.337 183.054 217.19C183.028 217.251 182.996 217.306 182.963 217.358C183.589 216.494 184.217 215.622 184.839 214.748C185.459 213.878 186.073 213.007 186.676 212.145C187.929 210.492 189.236 208.901 190.543 207.311L190.552 207.3C192.337 205.129 194.12 202.959 195.765 200.631C196.365 199.789 196.947 198.939 197.521 198.085L197.985 197.392L198.727 196.277C199.477 195.147 200.226 194.018 200.999 192.903C201.104 192.751 201.207 192.601 201.305 192.45C204.488 194.537 207.864 196.267 211.317 197.597C221.327 201.453 232.867 203.093 242.613 197.387C248.81 193.734 252.387 186.885 253.636 179.568C254.199 176.382 254.331 173.061 254.018 169.942C253.439 163.956 252.192 157.883 250.091 152.27C248.313 147.401 246.183 142.461 243.298 138.194C240.083 133.473 236.292 128.927 231.628 125.709C227.459 122.785 222.646 120.41 217.634 119.936C209.081 119.075 200.933 122.904 194.374 128.611C193.362 126.34 191.411 124.641 189.158 124.011C181.337 119.092 173.533 114.079 165.902 108.858C164.97 108.225 164.037 107.583 163.102 106.939L163.095 106.934L163.085 106.927C159.747 104.629 156.379 102.311 152.896 100.324C148.6 97.86 144.227 95.5737 139.776 93.4663C132.303 89.9265 124.932 86.0679 117.605 82.2175C114.485 80.588 111.352 79.028 108.227 77.4714L108.192 77.4537C104.068 75.4001 99.9564 73.3524 95.8997 71.1594C92.3281 69.2286 88.7837 67.4004 85.1956 65.563C81.4399 63.6438 77.7532 61.5927 74.0497 59.6354C72.4897 58.8128 70.8977 58.0441 69.3054 57.2755C67.7116 56.5062 66.1178 55.7366 64.5563 54.9131C61.3032 53.2405 58.1792 51.3512 55.0112 49.4529C55.023 49.4713 55.0395 49.4849 55.0602 49.498L53.5739 48.6011C49.8937 46.3784 46.2284 44.1646 42.4133 42.2148C42.1882 42.1026 41.9633 41.9893 41.7383 41.8751L41.3879 41.6971C39.9317 40.9564 38.4653 40.2107 36.8976 39.6989C36.0353 39.4287 35.2173 39.1672 34.3634 38.8498C33.8527 38.6503 33.35 38.4039 32.8999 38.1192C31.2228 37.0545 29.5703 35.8488 27.8849 34.8307C27.2037 34.3876 26.5175 33.9728 25.8175 33.5893C28.7201 33.026 31.6314 32.4808 34.5324 31.9373C35.5245 31.7515 36.5155 31.5658 37.5043 31.3797C39.9701 30.9104 42.4335 30.4323 44.8964 29.9542C50.8523 28.7981 56.8051 27.6426 62.7811 26.6131L62.7374 26.6043C68.3498 25.7434 73.9785 24.789 79.5608 23.5827C83.7724 22.6483 87.9092 21.279 92.0428 19.9108C92.9758 19.6018 93.9088 19.2932 94.8423 18.9896C94.7183 19.0188 94.5942 19.0484 94.4697 19.0802C96.5598 18.4439 98.6219 17.8126 100.736 17.312ZM112.728 323.086C112.674 323.157 112.618 323.223 112.558 323.281L112.595 323.23C112.607 323.213 112.62 323.197 112.633 323.18L112.659 323.149L112.132 323.632L111.401 324.164C111.095 324.346 110.738 324.565 110.39 324.737L110.192 324.816C109.756 324.99 109.284 325.178 108.79 325.289C109.087 325.155 109.42 325.076 109.76 324.951C109.139 325.117 108.57 325.245 107.958 325.364C107.127 325.474 106.326 325.541 105.519 325.592C105.195 325.613 104.87 325.631 104.541 325.648C103.409 325.614 102.33 325.543 101.259 325.425C100.878 325.364 100.503 325.299 100.13 325.23C99.7231 325.154 99.3189 325.073 98.9135 324.985C98.7316 324.947 98.5493 324.906 98.3667 324.865C98.1598 324.817 97.9521 324.769 97.7436 324.718C96.2304 324.268 94.8218 323.742 93.3778 323.161C92.2493 322.595 91.1649 322.037 90.089 321.433C88.9414 320.717 87.8544 319.916 86.7759 319.069C86.4218 318.755 86.0323 318.385 85.6784 318.072C86.0926 315.729 85.4986 313.427 84.2259 311.619C84.2591 311.431 84.2919 311.244 84.2814 311.048C84.4357 307.344 84.6427 303.601 85.0252 299.894C85.3324 297.384 85.7192 294.94 86.282 292.53C86.5244 291.594 86.7807 290.661 87.0528 289.723C87.2632 288.996 87.4827 288.267 87.7125 287.53L87.8371 287.263L88.0672 286.765C88.189 286.5 88.3095 286.238 88.4326 285.978L88.5532 285.726L88.6737 285.48C88.7425 285.34 88.8129 285.202 88.8848 285.064C88.9255 284.986 88.9667 284.908 89.0087 284.831L89.2067 284.506L89.2266 284.474C89.4774 284.06 89.7368 283.633 90.0182 283.239C90.0551 283.168 90.1047 283.1 90.1601 283.033C90.2078 282.975 90.26 282.918 90.3123 282.861L90.304 282.908L90.3563 282.87C90.4042 282.856 90.4544 282.829 90.5046 282.803C90.5548 282.777 90.605 282.75 90.6531 282.736C90.7931 282.715 90.9416 282.648 91.0818 282.628C91.1695 282.646 91.2218 282.608 91.3097 282.625L91.3537 282.634C91.5294 282.669 91.7407 282.76 91.9083 282.843C92.9131 283.336 93.8739 283.82 94.8267 284.351C96.0097 285.123 97.1322 285.979 98.2906 286.891C99.786 288.21 101.229 289.568 102.657 291.019C103.721 292.203 104.734 293.426 105.694 294.686C106.673 296.095 107.564 297.488 108.439 298.973C109.618 301.054 110.605 303.193 111.54 305.37C111.79 306.029 112.03 306.696 112.259 307.37C112.542 308.2 112.809 309.042 113.06 309.896C113.454 311.527 113.803 313.15 114.066 314.755C114.088 314.929 114.108 315.104 114.127 315.281C114.155 315.546 114.18 315.814 114.202 316.084C114.237 316.517 114.267 316.954 114.296 317.392L114.296 317.403L114.302 317.486L114.303 317.493L114.305 317.52C114.289 317.61 114.277 317.702 114.268 317.796C114.254 317.954 114.247 318.119 114.24 318.297L114.235 318.428C114.216 318.589 114.195 318.75 114.171 318.911L114.148 319.073C114.125 319.226 114.1 319.379 114.074 319.531C114.034 319.765 113.989 319.998 113.942 320.231C113.902 320.427 113.858 320.622 113.813 320.817C113.781 320.999 113.73 321.178 113.673 321.355C113.655 321.41 113.636 321.465 113.618 321.52L113.576 321.642C113.438 321.906 113.353 322.131 113.223 322.348C113.155 322.48 113.094 322.564 113.026 322.696C112.921 322.821 112.832 322.95 112.742 323.068L112.728 323.086C112.715 323.098 112.699 323.106 112.688 323.118L112.728 323.086ZM278.108 411.43C277.638 411.772 277.168 412.114 276.654 412.447C276.235 412.677 275.816 412.906 275.395 412.944C275.669 412.828 275.946 412.702 276.226 412.555C275.929 412.689 275.632 412.824 275.291 412.949C275.326 412.949 275.361 412.947 275.395 412.944C275.183 413.033 274.972 413.117 274.762 413.198L274.453 413.315L273.952 413.456C273.595 413.557 273.241 413.655 272.883 413.744C272.51 413.837 272.132 413.919 271.742 413.983C271.572 414.002 271.403 414.02 271.234 414.037C271.145 414.046 271.056 414.054 270.967 414.062C270.883 414.069 270.798 414.075 270.715 414.08C270.595 414.086 270.476 414.091 270.357 414.092C269.27 414.067 268.226 414.052 267.199 413.942C266.048 413.76 264.862 413.521 263.684 413.236C261.432 412.589 259.249 411.81 257.083 410.939C255.312 410.146 253.602 409.268 251.943 408.353C250.513 407.435 249.1 406.423 247.694 405.364C247.589 405.273 247.482 405.182 247.374 405.09L247.177 404.922C246.919 404.702 246.663 404.478 246.423 404.248C246.354 404.174 246.282 404.101 246.207 404.03C245.884 403.667 245.572 403.294 245.266 402.887L244.695 401.996C244.681 401.973 244.667 401.942 244.652 401.906C244.638 401.872 244.621 401.834 244.6 401.794C244.589 401.772 244.576 401.749 244.561 401.727C244.525 401.671 244.534 401.624 244.506 401.522C245.288 399.932 245.531 398.041 245.151 396.072C244.968 395.308 244.697 394.526 244.321 393.819L244.421 393.408C244.46 393.243 244.499 393.079 244.537 392.916C244.587 392.699 244.635 392.484 244.678 392.271C244.713 392.104 244.745 391.939 244.774 391.776C244.939 390.841 245.094 389.904 245.245 388.966C245.317 388.52 245.388 388.074 245.459 387.628C245.845 385.205 246.232 382.781 246.743 380.383C246.972 379.604 247.2 378.825 247.465 378.102C247.644 377.605 247.859 377.163 248.081 376.674C248.147 376.548 248.212 376.423 248.283 376.298C248.36 376.161 248.443 376.026 248.538 375.893L248.541 375.888C248.594 375.814 248.647 375.74 248.701 375.667C248.743 375.61 248.786 375.554 248.83 375.499L249.118 375.184C249.015 375.279 248.92 375.386 248.83 375.499L248.78 375.553C248.74 375.597 248.694 375.64 248.646 375.685L248.561 375.765L248.619 375.691L248.7 375.588L248.745 375.535L248.772 375.503C248.797 375.474 248.822 375.447 248.849 375.422C248.857 375.375 248.909 375.337 248.909 375.337L249.404 374.854L249.77 374.588L250.372 374.272C250.454 374.232 250.537 374.194 250.622 374.159C250.74 374.11 250.859 374.066 250.977 374.024C251.137 373.966 251.296 373.913 251.446 373.857C251.779 373.778 252.067 373.691 252.391 373.659C253.74 373.494 255.124 373.384 256.501 373.321C257.64 373.308 258.816 373.35 259.975 373.486C260.851 373.628 261.702 373.789 262.573 373.978C262.932 374.056 263.296 374.139 263.666 374.228C264.616 374.516 265.558 374.851 266.447 375.224C267.408 375.708 268.369 376.192 269.278 376.714L270.23 377.371C270.6 377.627 270.97 377.885 271.34 378.147L271.636 378.357L271.792 378.469C272.047 378.651 272.301 378.836 272.555 379.023C273.538 379.899 274.52 380.776 275.486 381.746C275.777 382.08 276.067 382.422 276.357 382.768C276.781 383.276 277.203 383.794 277.626 384.311C277.759 384.495 277.889 384.68 278.015 384.866C278.126 385.03 278.235 385.195 278.342 385.361C278.713 385.934 279.061 386.515 279.409 387.095C279.919 388.071 280.42 389.093 280.87 390.154C281.11 390.778 281.335 391.399 281.543 392.026C281.686 392.456 281.82 392.89 281.946 393.33C282.18 394.206 282.344 395.104 282.503 395.975L282.504 395.98L282.583 396.417C282.717 397.463 282.807 398.5 282.852 399.528C282.81 400.538 282.776 401.501 282.69 402.503L282.416 404.049C282.338 404.37 282.251 404.69 282.159 405.005C282.053 405.368 281.942 405.724 281.832 406.066C281.549 406.639 281.31 407.222 281.034 407.749C280.82 408.191 280.561 408.624 280.258 409.048C279.895 409.557 279.488 410.058 279.037 410.549C278.936 410.667 278.829 410.777 278.72 410.883C278.612 410.988 278.502 411.088 278.39 411.187L278.263 411.297L278.108 411.43ZM246.423 404.248L246.463 404.292L246.515 404.349L246.639 404.488C246.723 404.584 246.806 404.678 246.89 404.766C246.673 404.539 246.461 404.313 246.255 404.083C246.31 404.139 246.366 404.194 246.423 404.248ZM234.744 182.707L235.214 182.365C235.338 182.274 235.434 182.178 235.551 182.062L235.648 181.967C235.726 181.87 235.808 181.773 235.891 181.677C236.057 181.484 236.223 181.29 236.349 181.089C236.591 180.75 236.781 180.448 236.979 180.1C237.133 179.743 237.331 179.395 237.486 179.038C237.571 178.812 237.665 178.54 237.714 178.259L238.195 175.542C238.289 174.494 238.339 173.436 238.338 172.417C238.33 172.287 238.323 172.158 238.314 172.029L238.293 171.726C238.27 171.405 238.243 171.086 238.212 170.768C238.153 170.161 238.08 169.558 237.995 168.952C237.648 166.797 237.197 164.717 236.666 162.572C236.056 160.364 235.341 158.231 234.494 156.072C233.568 153.848 232.545 151.654 231.375 149.526C230.67 148.366 229.921 147.197 229.12 146.065C228.857 145.719 228.587 145.383 228.312 145.052C228.024 144.706 227.732 144.365 227.438 144.023L227.431 144.015C227.219 143.768 227.006 143.52 226.794 143.269C225.828 142.299 224.818 141.319 223.748 140.425C223.58 140.305 223.414 140.185 223.249 140.066L223.156 139.999C222.519 139.539 221.894 139.088 221.239 138.659C220.577 138.284 219.951 137.964 219.273 137.682C218.961 137.548 218.647 137.425 218.326 137.306C218.052 137.205 217.773 137.107 217.488 137.009C216.975 136.881 216.452 136.775 215.948 136.674C215.85 136.654 215.751 136.641 215.651 136.632C215.556 136.623 215.461 136.618 215.366 136.615L215.243 136.611L215.14 136.609C214.935 136.616 214.738 136.637 214.541 136.658L214.311 136.681C214.189 136.693 214.066 136.703 213.94 136.707C213.091 136.876 212.234 137.092 211.333 137.298L211.129 137.37C210.94 137.438 210.757 137.507 210.575 137.58C210.319 137.683 210.067 137.793 209.813 137.915C209.264 138.193 208.758 138.479 208.252 138.765C207.059 139.593 205.902 140.476 204.745 141.359C203.623 142.298 202.582 143.301 201.575 144.36C200.657 145.437 199.739 146.514 198.9 147.655C198.446 148.355 198.006 149.075 197.57 149.803C197.285 150.281 197.001 150.762 196.718 151.243C196.622 151.415 196.531 151.595 196.442 151.778C196.407 151.851 196.372 151.925 196.338 151.999C196.263 152.16 196.19 152.32 196.119 152.478L196.114 152.488L195.997 152.747C199.267 154.327 201.279 158.127 200.592 162.015C200.294 163.702 199.537 165.151 198.522 166.256C198.621 166.471 198.722 166.674 198.823 166.877C198.924 167.078 199.024 167.28 199.122 167.493C199.353 167.893 199.607 168.277 199.866 168.669L200.082 168.995C200.143 169.088 200.203 169.181 200.263 169.275C201.152 170.424 202.049 171.526 203.043 172.599C204.052 173.578 205.071 174.51 206.133 175.452C207.653 176.631 209.19 177.716 210.78 178.763C211.471 179.158 212.157 179.534 212.849 179.896C213.727 180.356 214.615 180.793 215.532 181.222C217.443 181.994 219.327 182.664 221.315 183.258C222.021 183.428 222.716 183.579 223.407 183.714C223.911 183.812 224.414 183.901 224.917 183.982C226.304 184.115 227.7 184.202 229.103 184.241C229.699 184.216 230.347 184.152 230.908 184.071C231.468 183.989 231.993 183.852 232.518 183.715C232.999 183.549 233.444 183.376 233.886 183.202C234.183 183.048 234.468 182.886 234.744 182.707Z" fill="black"/>
<path d="M201.104 192.827C201.085 192.84 201.072 192.855 201.063 192.868C201.046 192.892 201.043 192.912 201.043 192.912C201.046 192.893 201.048 192.882 201.053 192.873C201.056 192.866 201.061 192.86 201.069 192.853C201.077 192.846 201.088 192.838 201.104 192.827Z" fill="black"/>
</svg>
