<svg id="Camada_1" data-name="Camada 1" xmlns="http://www.w3.org/2000/svg" width="428.41" height="170.52" viewBox="0 0 428.41 170.52">
  <g>
    <path d="M817.31,494.11a27.1,27.1,0,0,1-5.23,5.44,67.22,67.22,0,0,1-8.6,6,99.82,99.82,0,0,1-10.91,5.58,93.62,93.62,0,0,1-12.14,4.41,127.68,127.68,0,0,1-5.54,25.88,142.32,142.32,0,0,1-10.45,24.84,77.12,77.12,0,0,1-13.52,18.52q-7.38,7.22-14.75,7.2a26.45,26.45,0,0,1-8.14-1.76,33.3,33.3,0,0,1-9.84-5.59,36,36,0,0,1-8.14-9.26,24.21,24.21,0,0,1-3.38-13.08A93.89,93.89,0,0,1,708.51,545a157.25,157.25,0,0,1,5.07-19.55,136.48,136.48,0,0,1,8-19.25,112.08,112.08,0,0,1,10.3-16.76,53.23,53.23,0,0,1,11.83-11.76,22.47,22.47,0,0,1,13.06-4.41,11.59,11.59,0,0,1,6.61,2.2,36.45,36.45,0,0,1,6.3,5.59,59.76,59.76,0,0,1,5.68,7.35c1.74,2.64,3.33,5.05,4.77,7.2l.92,6.76a87.51,87.51,0,0,0,15.83-2.64Q804.7,497.65,817.31,494.11Zm-59.93,24.7q-4.62-.88-4.61-8.82a40.58,40.58,0,0,1,.76-7.35c.51-2.74,1.08-5.59,1.69-8.53q-4.31,5-8.75,14.55a177.79,177.79,0,0,0-8,20.44q-3.54,10.88-5.84,21.16a79.46,79.46,0,0,0-2.31,16.47c0,4.7,1,7.06,3.07,7.06s4.46-1.62,7.23-4.86a63.85,63.85,0,0,0,8.14-12.79,178.35,178.35,0,0,0,7.68-17.78,140.6,140.6,0,0,0,5.84-19.85,15.16,15.16,0,0,1-2.92.3Z" transform="translate(-706.67 -471.77)" style="fill: #DB2777"/>
    <path d="M783.8,642.29a20.05,20.05,0,0,1-4.61-1,35,35,0,0,1-6.6-2.8,22.11,22.11,0,0,1-5.69-4.41,6.09,6.09,0,0,1-1.84-5.58q3.08-16.47,7.68-34.4t9.68-35.28q5.07-17.34,10.14-32.78t9.22-27.19q4.15-11.76,6.92-18.82c1.84-4.7,2.86-7.06,3.07-7.06a47.49,47.49,0,0,1,6.61-.14,64,64,0,0,1,7.53.73,45,45,0,0,1,6.45,1.47,10.08,10.08,0,0,1,3.69,1.77q-2.46.87-7.07,11.17t-10.14,25.87q8.6-17.92,16.29-29t12.6-11a9.87,9.87,0,0,1,4.46,1.76,55,55,0,0,1,6,4.26,41.25,41.25,0,0,1,5.53,5.44,14.41,14.41,0,0,1,3.07,5.29,30,30,0,0,1,.46,9.41,99.05,99.05,0,0,1-1.84,12.2A136.83,136.83,0,0,1,861.71,526q-2.3,7.22-5.07,14.55,8.91-6.16,16.44-12.49a72.08,72.08,0,0,0,11.84-12.2q1.53,4.7-1.23,10.58a49.6,49.6,0,0,1-8.61,12.2,124.43,124.43,0,0,1-13.52,12.5q-7.68,6.17-15.68,11.76a127.6,127.6,0,0,1-7.68,11.46,50.93,50.93,0,0,1-8.3,8.82,30.87,30.87,0,0,1-8.6,5.15,12.81,12.81,0,0,1-8.3.44,25.88,25.88,0,0,1-8.76-3.82,34.3,34.3,0,0,1-6.61-5.88q-3.07,10.29-5.53,20T787.8,617q-1.84,8.24-2.92,14.85A68.75,68.75,0,0,0,783.8,642.29ZM846.19,490c-.61,0-2.36,1.66-5.22,5a131.25,131.25,0,0,0-10.3,14.41q-6,9.4-13.21,22.93a298.91,298.91,0,0,0-14,30.58l3.38,4.41a117.76,117.76,0,0,0,13.83-5.88,122,122,0,0,0,9.84-18.52q4.9-11.17,8.45-21.91t5.53-19.55Q846.5,492.64,846.19,490Z" transform="translate(-706.67 -471.77)" style="fill: #DB2777"/>
    <path d="M909.19,577.31a14.41,14.41,0,0,1-1.07,4.41,24,24,0,0,1-3.23,5.88,18.94,18.94,0,0,1-5.53,5,15.72,15.72,0,0,1-8.3,2.06q-6.76,0-9.07-4.56A16.84,16.84,0,0,1,880.46,580a24.77,24.77,0,0,1,3.69-10.14q2.91-4.56,6.6-4.56,8,0,13.07,2.94A10.45,10.45,0,0,1,909.19,577.31Z" transform="translate(-706.67 -471.77)" style="fill: #DB2777"/>
    <path d="M1024.75,481.47a119.19,119.19,0,0,0-6,10.73,182.6,182.6,0,0,0-8,18.52q-4.14,11-8.29,24.7a219.33,219.33,0,0,0-6.61,29q4.6-5.29,9.83-12.06t9.69-13.52q4.44-6.76,8-12.94a87.32,87.32,0,0,0,5.07-10q2.76.58,2,6.17a67,67,0,0,1-3.68,13.52,171,171,0,0,1-7.38,16.91,173.56,173.56,0,0,1-9.37,16.61,113.23,113.23,0,0,1-9.38,12.79Q996.17,587,993.4,587a11.1,11.1,0,0,1-6.15-2.35,41.57,41.57,0,0,1-6.45-5.58,39.83,39.83,0,0,1-5.22-6.77c-1.44-2.35-2.16-4.3-2.16-5.88,0-2.15.11-4.6.31-7.35s.51-5.58.92-8.52q-2.76,7.35-6.14,14.7t-6.76,13.38a57.62,57.62,0,0,1-6.61,9.7q-3.23,3.67-6,3.67a15.29,15.29,0,0,1-4.3-.88,23.68,23.68,0,0,1-5.84-2.94,25.57,25.57,0,0,1-5.68-5.29,17.75,17.75,0,0,1-3.54-7.65q-1.53-5.87-.46-16.46a164.83,164.83,0,0,1,4-22.49,206.9,206.9,0,0,1,7.53-24.11,132.15,132.15,0,0,1,10.29-21.61,56.79,56.79,0,0,1,12.14-14.7q6.45-5.28,13.22-3.52a39.6,39.6,0,0,1,9.83,4.26,105.44,105.44,0,0,1,8.91,6,52.26,52.26,0,0,1,4-7.8c1.23-1.86,2.25-2.79,3.07-2.79a23,23,0,0,1,6.3,1,69.88,69.88,0,0,1,6.77,2.35,31.82,31.82,0,0,1,5.83,3.09A16.81,16.81,0,0,1,1024.75,481.47Zm-40,28.52q1.55-4.41,2.92-8.53t2.92-7.94q-3.37-3.22-6.14-3.08a8.15,8.15,0,0,0-5.23,2.5,43,43,0,0,0-7.37,10.14q-3.69,6.62-7.22,14.7t-6.46,16.61q-2.93,8.54-5.07,16t-3.23,13.09c-.72,3.72-1,6.27-.77,7.64q.93,0,4.15-4.85t8.15-13.08q4.9-8.24,10.91-19.41T984.79,510Z" transform="translate(-706.67 -471.77)" style="fill: #DB2777"/>
    <path d="M1063.78,471.77a8.09,8.09,0,0,1,2.76,1.32q2.14,1.32,4.77,3.09a30.85,30.85,0,0,1,4.76,4,17.69,17.69,0,0,1,3.07,4,17,17,0,0,1,9.38,1.61q4.76,2.2,6.3,9c2.86-.59,6.09-1.27,9.68-2.06s7.22-1.71,10.91-2.79,7.27-2.21,10.76-3.38a54.2,54.2,0,0,0,8.91-3.82,15.06,15.06,0,0,1-2.15,3.82c-1,1.17-2.31,2.55-3.85,4.11s-3.43,3.34-5.68,5.3a75.2,75.2,0,0,1-15.37,9.26,92,92,0,0,1-14.75,5.14,70.24,70.24,0,0,1-4.92,14.41,65.62,65.62,0,0,1-8,13.23,45,45,0,0,1-10.29,9.7,21.38,21.38,0,0,1-12.14,3.82,17.51,17.51,0,0,1-3.69-.29,39.09,39.09,0,0,0-5.53,3.38A13.6,13.6,0,0,0,1046,557q10.14,5.28,18.75,10.73A91.34,91.34,0,0,1,1079,578.64a39.44,39.44,0,0,1,8.3,10.73,13.21,13.21,0,0,1,.77,10.58q-1.85,4.69-7.23,11a85.52,85.52,0,0,1-28.27,21.46,39.27,39.27,0,0,1-16.75,4A35.11,35.11,0,0,1,1008,624.06a30,30,0,0,1-6.15-11.61,27.14,27.14,0,0,1-.77-11.62,13.7,13.7,0,0,1,4-8.38,41.33,41.33,0,0,1,8.75-7.05,61.44,61.44,0,0,1,11.22-5.29,65.28,65.28,0,0,1,11.68-3.09,52.77,52.77,0,0,1-6.91-5.73,22.48,22.48,0,0,1-5.54-7.94,10.06,10.06,0,0,1,.77-8.82q2.46-4.56,11.68-8.67a2.78,2.78,0,0,1,1.23-.3,5.49,5.49,0,0,0,1.54-.29,41.91,41.91,0,0,1-7.69-6,20.79,20.79,0,0,1-4.91-7.5,40.84,40.84,0,0,1,.3-19.25,69.47,69.47,0,0,1,7.84-19.55A54.72,54.72,0,0,1,1048,477.79Q1055.48,471.78,1063.78,471.77Zm-.93,137.88a7.63,7.63,0,0,0,.77-4.41,18.47,18.47,0,0,0-1.84-6.61,31.93,31.93,0,0,0-5.38-7.79,48.93,48.93,0,0,0-10.14-8.24,43.81,43.81,0,0,0-12.6,6.18,22.92,22.92,0,0,0-7.38,8.23,11.6,11.6,0,0,0-.77,8.82q1.4,4.41,6.92,7.64a23.26,23.26,0,0,0,9.07,2.8,31.19,31.19,0,0,0,9.06-.44,29.25,29.25,0,0,0,7.69-2.65A12.77,12.77,0,0,0,1062.85,609.65Zm-7.37-72q6.45,0,12.29-7.93a65.42,65.42,0,0,0,9.22-17.94c-3.48-.59-5.64-1.76-6.45-3.53q-1.23-4.11-.16-10.58t1.69-9.7q-6.15,3.82-11.37,12.05a75.33,75.33,0,0,0-8,16.61,41.54,41.54,0,0,0-2.46,14.7C1050.46,535.52,1052.2,537.62,1055.48,537.62Z" transform="translate(-706.67 -471.77)" style="fill: #DB2777"/>
  </g>
</svg>
